<svg xmlns="http://www.w3.org/2000/svg" xmlns:xlink="http://www.w3.org/1999/xlink" width="368.784" height="111.541" viewBox="0 0 368.784 111.541">
  <defs>
    <clipPath id="clip-path">
      <path id="Path_1276" data-name="Path 1276" d="M69.337-111.541c-3.741,0-4.344,2.5-4.344,2.5h0c.242.484.806.041,1.673-.4h0a4.311,4.311,0,0,1,3.487-.4h0c2.9.967,5.967.322,15,43.382h0s-27.336,38.178-58.7,56.424h0S11.149-.71,1.613-2.118h0S0-2.921,0-2.035H0C0-1.149.967-.343,5.161-.021h0c.145.011.321.019.528.021h.2C12.133-.054,41.7-5.043,85.984-62.328h0s8.763,44.043,19.65,43.6h0s3.87,0,5.645-5.968h0a1.425,1.425,0,0,0-.565-1.815h0c-1.089-.6-1.21,2.54-2.54,3.508h0c-1.331.967-2.9,2.783-7.379-4.112h0C96.32-34.009,89.3-63.643,88.821-66.182h0s13.546-18.386,17.78-21.289h0c4.233-2.9,8.468-1.572,8.951-.725h0c.483.846,1.693-2.782-5.081-3.024h0c-6.773-.243-10.4,4.475-22.5,21.167h0s-4.959-20.925-7.62-29.15h0c-2.661-8.225-5.32-12.332-11.007-12.338h0Z" fill="none"/>
    </clipPath>
    <linearGradient id="linear-gradient" y1="0.5" x2="0.314" y2="0.5" gradientUnits="objectBoundingBox">
      <stop offset="0" stop-color="#7b4d1c"/>
      <stop offset="0.1" stop-color="#eac75c"/>
      <stop offset="0.2" stop-color="#83591d"/>
      <stop offset="0.3" stop-color="#7b4d1c"/>
      <stop offset="0.4" stop-color="#835023"/>
      <stop offset="0.5" stop-color="#8a532b"/>
      <stop offset="0.6" stop-color="#986337"/>
      <stop offset="0.7" stop-color="#ad824a"/>
      <stop offset="0.8" stop-color="#c2a05d"/>
      <stop offset="0.9" stop-color="#f1e7b3"/>
      <stop offset="1" stop-color="#905931"/>
    </linearGradient>
    <clipPath id="clip-path-2">
      <path id="Path_1278" data-name="Path 1278" d="M0-111.541H368.784V0H0Z" fill="none"/>
    </clipPath>
  </defs>
  <g id="Group_1924" data-name="Group 1924" transform="translate(0 111.541)">
    <g id="Group_1907" data-name="Group 1907" clip-path="url(#clip-path)">
      <g id="Group_1906" data-name="Group 1906" transform="translate(0 -55.771)">
        <path id="Path_1275" data-name="Path 1275" d="M0-55.77H368.784V55.771H0Z" fill="url(#linear-gradient)"/>
      </g>
    </g>
    <text id="E_" data-name="E     " transform="translate(57.977 -56.718)" fill="#929497" font-size="26" font-family="Helvetica"><tspan x="0" y="0" xml:space="preserve">E     </tspan></text>
    <g id="Group_1909" data-name="Group 1909" clip-path="url(#clip-path-2)">
      <g id="Group_1908" data-name="Group 1908" transform="translate(70.572 -58.592)">
        <path id="Path_1277" data-name="Path 1277" d="M0,0A3.477,3.477,0,0,1-1.734.95a12.936,12.936,0,0,1-3.121.3c-.531,0-.975-.016-1.329-.045s-.627-.06-.816-.09-.391-.071-.6-.122-.392-.1-.544-.142A27.574,27.574,0,0,1-8.374-4.3l.051-1.823a15.745,15.745,0,0,1,2.281-.128,25.958,25.958,0,0,1,3.157.128,1.651,1.651,0,0,1,1.2.59A3.322,3.322,0,0,1-1.339-3.89H-.9q.014-1.36.02-2.414T-.87-8.692l-.367-.026A7.445,7.445,0,0,1-1.63-7.594.924.924,0,0,1-2-7.138a3.009,3.009,0,0,1-.767.154q-1,.1-3.689.1-1.56,0-1.863-.025,0,.077-.013-1.156t-.013-2.183a34.951,34.951,0,0,1,.228-3.582,31.046,31.046,0,0,1,3.892-.256,11.945,11.945,0,0,1,2.656.256q1.108.258,1.109,1.195c0,.043-.017.2-.051.475s-.051.436-.051.488c0,.128.106.192.317.192q.253,0,.418-1.1T.4-14.791q-2.763.1-4.132.1H-11.86a1.783,1.783,0,0,0-.025.334,3.234,3.234,0,0,1,1.153.385,1.312,1.312,0,0,1,.412.886,22.245,22.245,0,0,1,.146,2.568l.089,4.083q.012.4-.032,1.99t-.114,2.869Q-10.3-.3-10.377.192a4.1,4.1,0,0,1-.128.675.72.72,0,0,1-.211.314,1.462,1.462,0,0,1-.555.238c-.272.073-.541.139-.8.2l-.026.436q.723-.037,2.269-.09t2.643-.07q1.1-.02,1.92-.019-.126,0,.774.025c.6.017,1.162.026,1.685.026q1.306,0,2.029.019T.36,2A10.113,10.113,0,0,0,.981.328a20.088,20.088,0,0,0,.443-2.215H1.031A5.4,5.4,0,0,1,0,0Z" fill="none" stroke="#929497" stroke-width="0.242"/>
      </g>
    </g>
    <text id="PERIENCE_" data-name="PERIENCE " transform="translate(104.409 -56.718)" fill="#929497" font-size="26" font-family="Helvetica" letter-spacing="0.208em"><tspan x="0" y="0">PERIENCE </tspan></text>
    <g id="Group_1918" data-name="Group 1918" clip-path="url(#clip-path-2)">
      <g id="Group_1910" data-name="Group 1910" transform="translate(105.575 -56.461)">
        <path id="Path_1279" data-name="Path 1279" d="M0,0,.646-.077A14.236,14.236,0,0,1,2.827-.206q.368,0,1.356.052a9.992,9.992,0,0,1,1.293.128L5.5-.6A7.717,7.717,0,0,1,3.919-.809.92.92,0,0,1,3.3-1.284a3.335,3.335,0,0,1-.194-1.1c-.011-.188-.02-.73-.03-1.624s-.019-1.675-.029-2.343a10.2,10.2,0,0,0,1.636.128,9.077,9.077,0,0,0,3.853-.758A5.928,5.928,0,0,0,11-8.965a4.531,4.531,0,0,0,.836-2.609,4.368,4.368,0,0,0-.437-1.845,5.62,5.62,0,0,0-1.343-1.774,6.828,6.828,0,0,0-2.25-1.33,8.946,8.946,0,0,0-3.131-.5c-.347,0-.617.009-.812.027l-.8.071q-.989.056-1.382.055-1.369,0-2.383-.076a2.585,2.585,0,0,0,0,.513,6.678,6.678,0,0,1,1.027.18.91.91,0,0,1,.532.372,1.542,1.542,0,0,1,.171.494c.038.2.078.673.121,1.413s.072,1.359.088,1.855c.034.727.055,1.265.064,1.611s.014.837.019,1.47.006,1.22.006,1.759a45.6,45.6,0,0,1-.19,5.945.58.58,0,0,1-.349.449A10.541,10.541,0,0,1-.469-.462v.385A1.394,1.394,0,0,0,0,0ZM4.906-16.357a4.9,4.9,0,0,1,2.662.7,4.355,4.355,0,0,1,1.654,1.825,5.486,5.486,0,0,1,.539,2.4,4.4,4.4,0,0,1-.736,2.655A4.017,4.017,0,0,1,7.219-7.351,5.8,5.8,0,0,1,5.1-6.933a7.929,7.929,0,0,1-2.054-.3Q3.017-8.72,3.017-9.967c0-.1.008-.452.025-1.074s.032-1.195.045-1.723.029-1.2.051-2.018.031-1.266.031-1.343A7.253,7.253,0,0,1,4.906-16.357Z" fill="none" stroke="#929497" stroke-width="0.242"/>
      </g>
      <g id="Group_1911" data-name="Group 1911" transform="translate(136.183 -58.592)">
        <path id="Path_1280" data-name="Path 1280" d="M0,0A3.477,3.477,0,0,1-1.734.95a12.936,12.936,0,0,1-3.121.3c-.531,0-.975-.016-1.329-.045s-.627-.06-.816-.09-.391-.071-.6-.122-.392-.1-.544-.142A27.574,27.574,0,0,1-8.374-4.3l.051-1.823a15.745,15.745,0,0,1,2.281-.128,25.958,25.958,0,0,1,3.157.128,1.651,1.651,0,0,1,1.2.59A3.322,3.322,0,0,1-1.339-3.89H-.9q.014-1.36.02-2.414T-.87-8.692l-.367-.026A7.445,7.445,0,0,1-1.63-7.594.924.924,0,0,1-2-7.138a3.009,3.009,0,0,1-.767.154q-1,.1-3.689.1-1.56,0-1.863-.025,0,.077-.013-1.156t-.013-2.183a34.951,34.951,0,0,1,.228-3.582,31.046,31.046,0,0,1,3.892-.256,11.945,11.945,0,0,1,2.656.256q1.108.258,1.109,1.195c0,.043-.017.2-.051.475s-.051.436-.051.488c0,.128.106.192.317.192q.253,0,.418-1.1T.4-14.791q-2.763.1-4.132.1H-11.86a1.783,1.783,0,0,0-.025.334,3.234,3.234,0,0,1,1.153.385,1.312,1.312,0,0,1,.412.886,22.245,22.245,0,0,1,.146,2.568l.089,4.083q.012.4-.032,1.99t-.114,2.869Q-10.3-.3-10.377.192a4.1,4.1,0,0,1-.128.675.72.72,0,0,1-.211.314,1.462,1.462,0,0,1-.555.238c-.272.073-.541.139-.8.2l-.026.436q.723-.037,2.269-.09t2.643-.07q1.1-.02,1.92-.019-.126,0,.774.025c.6.017,1.162.026,1.685.026q1.306,0,2.029.019T.36,2A10.113,10.113,0,0,0,.981.328a20.088,20.088,0,0,0,.443-2.215H1.031A5.4,5.4,0,0,1,0,0Z" fill="none" stroke="#929497" stroke-width="0.242"/>
      </g>
      <g id="Group_1912" data-name="Group 1912" transform="translate(153.693 -59.863)">
        <path id="Path_1281" data-name="Path 1281" d="M0,0A15.6,15.6,0,0,0,1.826,1.938,9.1,9.1,0,0,0,3.993,3.409a5.445,5.445,0,0,0,2.371.546A1.514,1.514,0,0,0,6.909,3.9a.184.184,0,0,0,.114-.173.246.246,0,0,0-.241-.257,3.849,3.849,0,0,1-1.841-.725A9.946,9.946,0,0,1,3.094,1.053,26.185,26.185,0,0,1,1.4-1.11Q.613-2.233-.582-4.057l-.571-.873A6.7,6.7,0,0,0,.837-6.054,4.4,4.4,0,0,0,1.99-7.523a3.88,3.88,0,0,0,.381-1.67A3.809,3.809,0,0,0,2-10.817,4.183,4.183,0,0,0,.919-12.223a5.465,5.465,0,0,0-1.781-.988,7.231,7.231,0,0,0-2.395-.372q-.508,0-2.415.16t-2.212.16q-1.039,0-1.712-.025l-.05.423a4.017,4.017,0,0,1,1.077.244.989.989,0,0,1,.507.61,5.233,5.233,0,0,1,.209,1.432q.045.975.02,3.056v5.674A28.331,28.331,0,0,1-7.96,1.1,2.619,2.619,0,0,1-8.328,2.33a1.536,1.536,0,0,1-.824.469,1.724,1.724,0,0,0-.425.154.217.217,0,0,0-.094.193c0,.154.084.23.253.23A1.117,1.117,0,0,1-9.2,3.351a18.576,18.576,0,0,1,2.536-.18q.24,0,1.331.1.861.128,1.065.128.177,0,.177-.282c0-.094-.093-.162-.279-.2a6.926,6.926,0,0,1-1.109-.36.719.719,0,0,1-.349-.437A5.737,5.737,0,0,1-6.09.411Q-6.147-.8-6.147-1.772l.025-3.081a19.115,19.115,0,0,0,2.776.167l1.457,2.1Q-.8-1.013,0,0ZM-5.755-12.416q.114-.321.818-.468a6.237,6.237,0,0,1,1.261-.148,3.763,3.763,0,0,1,2.282.686A4.291,4.291,0,0,1-.006-10.7a4.288,4.288,0,0,1,.45,1.826,3.32,3.32,0,0,1-.52,1.962A2.946,2.946,0,0,1-1.312-5.879a5.3,5.3,0,0,1-1.394.4,9.789,9.789,0,0,1-1.287.089,8.854,8.854,0,0,1-2.053-.2Q-6.046-11.789-5.755-12.416Z" fill="none" stroke="#929497" stroke-width="0.242"/>
      </g>
      <g id="Group_1913" data-name="Group 1913" transform="translate(168.555 -72.587)">
        <path id="Path_1282" data-name="Path 1282" d="M0,0A1.107,1.107,0,0,1,.71.635a5.142,5.142,0,0,1,.2,1.43q.127,3.632.127,5.568,0,2.144-.07,4.073A9.957,9.957,0,0,1,.64,14.33a1.3,1.3,0,0,1-.659.782,5.373,5.373,0,0,1-1.851.321l.026.487q.1,0,.6-.019t1.121-.032l1-.019c.249,0,.56-.007.931-.007.262,0,.5,0,.7.007l.869.019q.564.012,1.09.032t.7.019l.05-.487a5.322,5.322,0,0,1-1.635-.2.91.91,0,0,1-.621-.559A5.411,5.411,0,0,1,2.82,13.4q-.037-1.118-.044-2.1T2.77,6.618q0-5.372.418-6.181A1,1,0,0,1,3.8-.044,6.168,6.168,0,0,1,5.317-.167v-.6q-1.026.051-2.192.1T1.806-.616Q1.362-.616.07-.667q-.355-.027-1.788-.1v.552A5.473,5.473,0,0,1,0,0Z" fill="none" stroke="#929497" stroke-width="0.242"/>
      </g>
      <g id="Group_1914" data-name="Group 1914" transform="translate(192.439 -58.592)">
        <path id="Path_1283" data-name="Path 1283" d="M0,0A3.477,3.477,0,0,1-1.734.95a12.936,12.936,0,0,1-3.121.3c-.531,0-.975-.016-1.329-.045s-.627-.06-.816-.09-.391-.071-.6-.122-.392-.1-.544-.142A27.574,27.574,0,0,1-8.374-4.3l.051-1.823a15.745,15.745,0,0,1,2.281-.128,25.958,25.958,0,0,1,3.157.128,1.651,1.651,0,0,1,1.2.59A3.322,3.322,0,0,1-1.339-3.89H-.9q.014-1.36.02-2.414T-.87-8.692l-.367-.026A7.445,7.445,0,0,1-1.63-7.594.924.924,0,0,1-2-7.138a3.009,3.009,0,0,1-.767.154q-1,.1-3.689.1-1.56,0-1.863-.025,0,.077-.013-1.156t-.013-2.183a34.951,34.951,0,0,1,.228-3.582,31.046,31.046,0,0,1,3.892-.256,11.945,11.945,0,0,1,2.656.256q1.108.258,1.109,1.195c0,.043-.017.2-.051.475s-.051.436-.051.488c0,.128.106.192.317.192q.253,0,.418-1.1T.4-14.791q-2.763.1-4.132.1H-11.86a1.783,1.783,0,0,0-.025.334,3.234,3.234,0,0,1,1.153.385,1.312,1.312,0,0,1,.412.886,22.245,22.245,0,0,1,.146,2.568l.089,4.083q.012.4-.032,1.99t-.114,2.869Q-10.3-.3-10.377.192a4.1,4.1,0,0,1-.128.675.72.72,0,0,1-.211.314,1.462,1.462,0,0,1-.555.238c-.272.073-.541.139-.8.2l-.026.436q.723-.037,2.269-.09t2.643-.07q1.1-.02,1.92-.019-.126,0,.774.025c.6.017,1.162.026,1.685.026q1.306,0,2.029.019T.36,2A10.113,10.113,0,0,0,.981.328a20.088,20.088,0,0,0,.443-2.215H1.031A5.4,5.4,0,0,1,0,0Z" fill="none" stroke="#929497" stroke-width="0.242"/>
      </g>
      <g id="Group_1915" data-name="Group 1915" transform="translate(201.874 -72.099)">
        <path id="Path_1284" data-name="Path 1284" d="M0,0A3.04,3.04,0,0,1,.57,1.579,28.239,28.239,0,0,1,.646,4.57L.56,10.695Q.545,12.056.475,12.922a4.9,4.9,0,0,1-.222,1.265,1,1,0,0,1-.4.539,2.239,2.239,0,0,1-.8.206A.808.808,0,0,0-1.229,15c-.043.025-.064.1-.064.231a.3.3,0,0,0,.082.237.4.4,0,0,0,.26.071l.888-.064c.228-.017.409-.031.544-.039q1.193-.051,1.4-.051t1.255.051q1.014.051,1.217.051A2.139,2.139,0,0,0,4.4,15a8.075,8.075,0,0,1-2.116-.622,1.693,1.693,0,0,1-.723-1.283,20.2,20.2,0,0,1-.1-3.393l.165-7.862Q3.042,3.171,3.974,4.057T5.146,5.123L9.9,9.616q4.4,4.147,5.273,6.06l.52.026q-.051-.681-.076-1.476t-.045-1.8q-.018-1-.019-2.093,0-2.773.095-5.841A27.692,27.692,0,0,1,15.972.372a1.373,1.373,0,0,1,.468-.809A2.547,2.547,0,0,1,17.531-.8L17.5-1.233,15.9-1.207h-.558c-.228,0-.448-.008-.659-.026q-.532-.051-.926-.064c-.262-.008-.524-.013-.786-.013a5.035,5.035,0,0,0-.621.026l-.139.36A8.613,8.613,0,0,1,13.652-.6a1.338,1.338,0,0,1,.7.636,3.9,3.9,0,0,1,.361,1.476q.1,1,.1,2.979V6.971q0,3.262-.1,4.866L7.225,4.647Q7.06,4.482,5.787,3.229T3.486.886Q2.459-.206,1.7-1.181l-1.09.025q-.43.014-.748-.006l-1.457-.1v.526A2.25,2.25,0,0,1,0,0Z" fill="none" stroke="#929497" stroke-width="0.242"/>
      </g>
      <g id="Group_1916" data-name="Group 1916" transform="translate(240.776 -60.326)">
        <path id="Path_1285" data-name="Path 1285" d="M0,0C0-.154-.081-.231-.241-.231q-.139,0-.33.373a10.146,10.146,0,0,1-1,1.521A4.252,4.252,0,0,1-2.979,2.754a5,5,0,0,1-2.269.456A6.3,6.3,0,0,1-7.283,2.8,7.716,7.716,0,0,1-9.589,1.464a7.1,7.1,0,0,1-1.89-2.51,8.745,8.745,0,0,1-.753-3.781,9.475,9.475,0,0,1,.855-4.16,6.28,6.28,0,0,1,2.333-2.69,6.126,6.126,0,0,1,3.3-.918A6.883,6.883,0,0,1-2.992-12,3.772,3.772,0,0,1-1.28-10.849a2.374,2.374,0,0,1,.215,1.1.764.764,0,0,0,.076.392.419.419,0,0,0,.3.161,19.222,19.222,0,0,1,.469-2.453l.191-.731a.24.24,0,0,0-.165-.1c-.085.008-.155.017-.209.025s-.142.026-.26.052A4.143,4.143,0,0,1-1.8-12.646a9.391,9.391,0,0,0-3.4-.629,10.89,10.89,0,0,0-4.355.911,8.153,8.153,0,0,0-3.473,2.838A7.974,7.974,0,0,0-14.387-4.8a8.6,8.6,0,0,0,.735,3.64,8.056,8.056,0,0,0,1.99,2.709A8.626,8.626,0,0,0-8.835,3.223a9.224,9.224,0,0,0,3.143.565,12.316,12.316,0,0,0,2.421-.225q1.116-.225,2.485-.636.482-1.733.545-1.9A6.515,6.515,0,0,0,0,0Z" fill="none" stroke="#929497" stroke-width="0.242"/>
      </g>
      <g id="Group_1917" data-name="Group 1917" transform="translate(259.494 -58.592)">
        <path id="Path_1286" data-name="Path 1286" d="M0,0A3.477,3.477,0,0,1-1.734.95a12.936,12.936,0,0,1-3.121.3c-.531,0-.975-.016-1.329-.045s-.627-.06-.816-.09-.391-.071-.6-.122-.392-.1-.544-.142A27.574,27.574,0,0,1-8.374-4.3l.051-1.823a15.745,15.745,0,0,1,2.281-.128,25.958,25.958,0,0,1,3.157.128,1.651,1.651,0,0,1,1.2.59A3.322,3.322,0,0,1-1.339-3.89H-.9q.014-1.36.02-2.414T-.87-8.692l-.367-.026A7.445,7.445,0,0,1-1.63-7.594.924.924,0,0,1-2-7.138a3.009,3.009,0,0,1-.767.154q-1,.1-3.689.1-1.56,0-1.863-.025,0,.077-.013-1.156t-.013-2.183a34.951,34.951,0,0,1,.228-3.582,31.046,31.046,0,0,1,3.892-.256,11.945,11.945,0,0,1,2.656.256q1.108.258,1.109,1.195c0,.043-.017.2-.051.475s-.051.436-.051.488c0,.128.106.192.317.192q.253,0,.418-1.1T.4-14.791q-2.763.1-4.132.1H-11.86a1.783,1.783,0,0,0-.025.334,3.234,3.234,0,0,1,1.153.385,1.312,1.312,0,0,1,.412.886,22.245,22.245,0,0,1,.146,2.568l.089,4.083q.012.4-.032,1.99t-.114,2.869Q-10.3-.3-10.377.192a4.1,4.1,0,0,1-.128.675.72.72,0,0,1-.211.314,1.462,1.462,0,0,1-.555.238c-.272.073-.541.139-.8.2l-.026.436q.723-.037,2.269-.09t2.643-.07q1.1-.02,1.92-.019-.126,0,.774.025c.6.017,1.162.026,1.685.026q1.306,0,2.029.019T.36,2A10.113,10.113,0,0,0,.981.328a20.088,20.088,0,0,0,.443-2.215H1.031A5.4,5.4,0,0,1,0,0Z" fill="none" stroke="#929497" stroke-width="0.242"/>
      </g>
    </g>
    <text id="_" data-name=" " transform="translate(278.677 -56.718)" fill="#929497" font-size="26" font-family="Helvetica"><tspan x="0" y="0"> </tspan></text>
    <g id="Group_1923" data-name="Group 1923" clip-path="url(#clip-path-2)">
      <g id="Group">
        <text id="CL" transform="translate(285.04 -56.718)" fill="#929497" font-size="26" font-family="Helvetica" letter-spacing="0.208em"><tspan x="0" y="0">CL</tspan></text>
        <text id="UB" transform="translate(325.959 -56.718)" fill="#929497" font-size="26" font-family="Helvetica" letter-spacing="0.208em"><tspan x="0" y="0">UB</tspan></text>
      </g>
      <g id="Group_1919" data-name="Group 1919" transform="translate(300.543 -60.326)">
        <path id="Path_1288" data-name="Path 1288" d="M0,0C0-.154-.081-.231-.241-.231q-.139,0-.33.373a10.146,10.146,0,0,1-1,1.521A4.252,4.252,0,0,1-2.979,2.754a5,5,0,0,1-2.269.456A6.3,6.3,0,0,1-7.283,2.8,7.716,7.716,0,0,1-9.589,1.464a7.1,7.1,0,0,1-1.89-2.51,8.745,8.745,0,0,1-.753-3.781,9.475,9.475,0,0,1,.855-4.16,6.28,6.28,0,0,1,2.333-2.69,6.126,6.126,0,0,1,3.3-.918A6.883,6.883,0,0,1-2.992-12,3.772,3.772,0,0,1-1.28-10.849a2.374,2.374,0,0,1,.215,1.1.764.764,0,0,0,.076.392.419.419,0,0,0,.3.161,19.222,19.222,0,0,1,.469-2.453l.191-.731a.24.24,0,0,0-.165-.1c-.085.008-.155.017-.209.025s-.142.026-.26.052A4.143,4.143,0,0,1-1.8-12.646a9.391,9.391,0,0,0-3.4-.629,10.89,10.89,0,0,0-4.355.911,8.153,8.153,0,0,0-3.473,2.838A7.974,7.974,0,0,0-14.387-4.8a8.6,8.6,0,0,0,.735,3.64,8.056,8.056,0,0,0,1.99,2.709A8.626,8.626,0,0,0-8.835,3.223a9.224,9.224,0,0,0,3.143.565,12.316,12.316,0,0,0,2.421-.225q1.116-.225,2.485-.636.482-1.733.545-1.9A6.515,6.515,0,0,0,0,0Z" fill="none" stroke="#929497" stroke-width="0.242"/>
      </g>
      <g id="Group_1920" data-name="Group 1920" transform="translate(308.934 -72.606)">
        <path id="Path_1289" data-name="Path 1289" d="M0,0A.946.946,0,0,1,.481.629,5.712,5.712,0,0,1,.659,2.1q.026.988,0,2.9L.634,10.65q0,1.669-.051,2.555a4.671,4.671,0,0,1-.221,1.329,1.112,1.112,0,0,1-.509.622,4.338,4.338,0,0,1-1.082.334l.025.4h8.9q.444,0,.78.007t.729.019a15.773,15.773,0,0,1,1.736.128,14.047,14.047,0,0,0,.622-1.913q.266-1.051.342-1.579l-.419-.051a2.647,2.647,0,0,1-1.115,1.707,7.753,7.753,0,0,1-1.819.629,12.942,12.942,0,0,1-3.01.3A18.137,18.137,0,0,1,3.4,15.054a1.6,1.6,0,0,1-.715-.244,1.627,1.627,0,0,1-.254-.873q-.077-.693-.076-2.145,0-1.591.025-3.209t.076-3.608q.037-1.771.089-2.9A5.846,5.846,0,0,1,2.712.661.973.973,0,0,1,3.334.09a6.617,6.617,0,0,1,1.3-.212l.026-.5q-.672.053-2.8.052C1.644-.58,1.369-.588,1.04-.6S.013-.614-1.052-.623v.45A3.027,3.027,0,0,1,0,0Z" fill="none" stroke="#929497" stroke-width="0.242"/>
      </g>
      <g id="Group_1921" data-name="Group 1921" transform="translate(327.789 -72.503)">
        <path id="Path_1290" data-name="Path 1290" d="M0,0A.5.5,0,0,1,.3.366,20.532,20.532,0,0,1,.64,5.086Q.64,6.1.608,8.166T.577,10.693A4.976,4.976,0,0,0,1.5,13.8,5.047,5.047,0,0,0,3.86,15.523a9.271,9.271,0,0,0,3.156.519A15.685,15.685,0,0,0,9.3,15.856a8.421,8.421,0,0,0,2.484-.789,3.948,3.948,0,0,0,1.813-1.7,6.392,6.392,0,0,0,.513-1.541,18,18,0,0,0,.324-2.163q.114-1.214.19-3.094t.114-4.308a14.3,14.3,0,0,1,.1-1.694A.7.7,0,0,1,15.224.02a3.5,3.5,0,0,1,1.2-.193V-.7q-.939-.026-3.664-.025a8.158,8.158,0,0,0-1.267.09l.051.449a5.407,5.407,0,0,1,1.166.09A.982.982,0,0,1,13.316.4a3.492,3.492,0,0,1,.349,1.308,25.1,25.1,0,0,1,.107,2.7q0,6.015-.7,8.069a2.966,2.966,0,0,1-1.343,1.642,6.729,6.729,0,0,1-2.117.833,9.665,9.665,0,0,1-1.914.231,8.357,8.357,0,0,1-3.03-.635A3.293,3.293,0,0,1,2.63,11.973a14.505,14.505,0,0,1-.2-2.158q-.051-1.386-.051-3.209,0-5.3.38-6.022a1.318,1.318,0,0,1,.6-.564A5.59,5.59,0,0,1,4.95-.327L4.811-.751q-2.079.1-4.234.1-1.217,0-1.813-.026l-.051.488A9.416,9.416,0,0,1,0,0Z" fill="none" stroke="#929497" stroke-width="0.242"/>
      </g>
      <g id="Group_1922" data-name="Group 1922" transform="translate(360.221 -67.231)">
        <path id="Path_1291" data-name="Path 1291" d="M0,0A3.387,3.387,0,0,0,.786-2.239,3.747,3.747,0,0,0,.171-4.375,3.833,3.833,0,0,0-1.458-5.753,5.332,5.332,0,0,0-3.7-6.215q-.09,0-1.712.115Q-6.934-6-7.174-6-8.2-6-9.545-6.1v.488a3.914,3.914,0,0,1,.951.244,1.044,1.044,0,0,1,.532.514,3.956,3.956,0,0,1,.285,1.283q.108.963.133,1.965T-7.618.461q0,.989-.026,2.792T-7.739,6.8a15.753,15.753,0,0,1-.2,2.3,1.035,1.035,0,0,1-.292.59,1.235,1.235,0,0,1-.532.3,5.206,5.206,0,0,1-.811.134v.488q1.71-.1,2.471-.1.355,0,.641.006l.824.02c.359.008.716.019,1.071.031s.6.02.735.02a11.345,11.345,0,0,0,4.2-.81q2.053-.809,2.053-3.636A4.532,4.532,0,0,0,1.99,4.2,4.329,4.329,0,0,0,.463,2.522a7.474,7.474,0,0,0-2.9-1.092A4.873,4.873,0,0,0,0,0ZM-5.926-3.41a5.561,5.561,0,0,1,.247-1.958q.19-.206,1.065-.2A3.6,3.6,0,0,1-2.9-5.15,3.191,3.191,0,0,1-1.629-3.917a3.812,3.812,0,0,1,.476,1.964A3.051,3.051,0,0,1-1.825.217,2.924,2.924,0,0,1-3.359,1.1a11.107,11.107,0,0,1-2,.2c-.245,0-.461.009-.646.026V-.245Q-6.008-1.594-5.926-3.41ZM-5.2,1.86q.426-.025.729-.026a5.671,5.671,0,0,1,2.225.405A4.352,4.352,0,0,1-.71,3.279,4.256,4.256,0,0,1,.165,4.723,4.657,4.657,0,0,1,.457,6.3,3.426,3.426,0,0,1-.2,8.511,3.489,3.489,0,0,1-1.819,9.66,6.092,6.092,0,0,1-3.8,9.987a11.786,11.786,0,0,1-1.343-.051.8.8,0,0,1-.571-.314,1.652,1.652,0,0,1-.241-.8q-.051-.54-.05-1.849V1.937Q-5.629,1.886-5.2,1.86Z" fill="none" stroke="#929497" stroke-width="0.242"/>
      </g>
    </g>
  </g>
</svg>
